<?xml version="1.0" standalone="no"?><!DOCTYPE svg PUBLIC "-//W3C//DTD SVG 1.1//EN" "http://www.w3.org/Graphics/SVG/1.1/DTD/svg11.dtd"><svg t="1690449090274" class="icon" viewBox="0 0 1024 1024" version="1.1" xmlns="http://www.w3.org/2000/svg" p-id="27368" xmlns:xlink="http://www.w3.org/1999/xlink" width="200" height="200"><path d="M964 730.4c-11.2-76-155.2-109.6-200-144-4-4-7.2-15.2-7.2-22.4 0-19.2 4-26.4 4-26.4s79.2-48.8 76-173.6c-4-52.8-34.4-147.2-136-147.2h-7.2c-22.4 0-41.6 4-56.8 11.2 22.4 72 48.8 208-60.8 295.2-41.6 64 102.4 102.4 79.2 90.4C784 674.4 821.6 716 828.8 764.8c7.2 37.6 11.2 64 11.2 64s98.4-15.2 124.8-34.4c3.2-22.4 7.2-44.8-0.8-64z" fill="#1B9EFF" p-id="27369"></path><path d="M499.2 587.2c-7.2-4-11.2-22.4-11.2-26.4 0-22.4 7.2-30.4 7.2-30.4s94.4-52.8 94.4-215.2c-4-64-41.6-185.6-170.4-185.6H412c-132 0-166.4 116.8-170.4 185.6 0 155.2 94.4 215.2 94.4 215.2s11.2 15.2 11.2 37.6c0 4-7.2 15.2-15.2 22.4C280 632 87.2 677.6 72 768 60.8 805.6 4 870.4 196.8 892.8 249.6 900 321.6 904 416 904c442.4 0 351.2-87.2 340-136-7.2-94.4-204-139.2-256.8-180.8z" fill="#1B9EFF" p-id="27370"></path></svg>